<?xml version="1.0" encoding="utf-8"?>
<!-- Generator: Adobe Illustrator 16.0.0, SVG Export Plug-In . SVG Version: 6.00 Build 0)  -->
<!DOCTYPE svg PUBLIC "-//W3C//DTD SVG 1.1//EN" "http://www.w3.org/Graphics/SVG/1.1/DTD/svg11.dtd">
<svg version="1.1" id="Capa_1" xmlns="http://www.w3.org/2000/svg" xmlns:xlink="http://www.w3.org/1999/xlink" x="0px" y="0px"
	 width="145px" height="32px" viewBox="0 0 145 32" enable-background="new 0 0 145 32" xml:space="preserve">
<g>
	<path fill="#FFFFFF" d="M38.597,10.322c-0.256,0.348-0.567,0.656-0.937,0.923c-0.367,0.269-0.802,0.485-1.304,0.651
		c-0.499,0.166-1.083,0.249-1.742,0.249c-0.832,0-1.564-0.147-2.2-0.441c-0.634-0.295-1.167-0.7-1.601-1.213
		c-0.43-0.515-0.756-1.126-0.975-1.831c-0.219-0.708-0.326-1.479-0.326-2.313c0-0.899,0.124-1.709,0.375-2.426
		c0.25-0.718,0.602-1.325,1.055-1.823c0.455-0.499,0.992-0.882,1.616-1.148c0.624-0.27,1.313-0.401,2.071-0.401
		c0.682,0,1.271,0.071,1.767,0.217c0.497,0.144,0.923,0.358,1.28,0.642c0.356,0.284,0.659,0.633,0.904,1.045
		c0.245,0.411,0.463,0.88,0.655,1.405l-2.815,1.107c-0.096-0.257-0.196-0.491-0.303-0.706c-0.107-0.215-0.229-0.395-0.369-0.538
		C35.61,3.575,35.45,3.462,35.27,3.383c-0.182-0.082-0.4-0.121-0.655-0.121c-0.32,0-0.598,0.078-0.832,0.233
		c-0.235,0.155-0.43,0.368-0.584,0.643c-0.154,0.272-0.267,0.597-0.337,0.971c-0.068,0.376-0.104,0.788-0.104,1.238
		c0,0.428,0.035,0.83,0.104,1.204c0.07,0.375,0.183,0.702,0.337,0.98s0.349,0.498,0.584,0.658c0.234,0.16,0.523,0.24,0.864,0.24
		c0.244,0,0.458-0.032,0.64-0.096c0.181-0.064,0.347-0.163,0.495-0.297c0.149-0.135,0.294-0.3,0.432-0.5
		c0.139-0.196,0.282-0.429,0.433-0.697l2.623,1.397C39.076,9.612,38.852,9.974,38.597,10.322z"/>
	<path fill="#FFFFFF" d="M48.354,7.743c0,0.729-0.099,1.366-0.295,1.911c-0.198,0.548-0.476,1.005-0.832,1.374
		c-0.357,0.369-0.78,0.647-1.271,0.836c-0.491,0.187-1.024,0.281-1.601,0.281c-0.575,0-1.108-0.095-1.599-0.281
		c-0.491-0.188-0.912-0.467-1.263-0.836c-0.354-0.369-0.628-0.826-0.824-1.374c-0.198-0.545-0.297-1.183-0.297-1.911
		c0-0.739,0.099-1.381,0.297-1.927c0.196-0.546,0.471-1.001,0.824-1.366c0.351-0.363,0.771-0.636,1.263-0.818
		c0.49-0.183,1.023-0.273,1.599-0.273c0.576,0,1.109,0.091,1.601,0.273s0.914,0.455,1.271,0.818c0.356,0.365,0.634,0.82,0.832,1.366
		C48.255,6.362,48.354,7.004,48.354,7.743z M45.235,2.411h-2.048l1.151-2.571h3.408L45.235,2.411z M45.491,7.743
		c0-0.712-0.096-1.228-0.286-1.546c-0.19-0.319-0.472-0.478-0.843-0.478c-0.37,0-0.65,0.158-0.842,0.478
		c-0.189,0.318-0.285,0.834-0.285,1.546c0,1.36,0.375,2.04,1.127,2.04S45.491,9.104,45.491,7.743z"/>
	<path fill="#FFFFFF" d="M59.262,11.969V7.182c0-0.546-0.081-0.912-0.241-1.101C58.858,5.895,58.634,5.8,58.344,5.8
		c-0.302,0-0.532,0.091-0.695,0.273c-0.162,0.182-0.242,0.541-0.242,1.076v4.819h-2.862V7.182c0-0.546-0.083-0.912-0.25-1.101
		C54.127,5.895,53.898,5.8,53.607,5.8c-0.301,0-0.531,0.091-0.693,0.273c-0.162,0.182-0.242,0.541-0.242,1.076v4.819H49.81V3.536
		h2.862l0.017,0.562c0.233-0.192,0.512-0.365,0.831-0.515c0.321-0.149,0.71-0.225,1.167-0.225c0.577,0,1.041,0.085,1.392,0.257
		c0.354,0.171,0.662,0.402,0.929,0.69c0.299-0.246,0.638-0.465,1.016-0.658c0.378-0.192,0.855-0.289,1.433-0.289
		c0.949,0,1.636,0.297,2.062,0.892c0.427,0.596,0.64,1.447,0.64,2.562v5.157H59.262z"/>
	<path fill="#FFFFFF" d="M71.531,7.743c0,0.729-0.099,1.366-0.296,1.911c-0.197,0.548-0.474,1.005-0.832,1.374
		c-0.356,0.369-0.781,0.647-1.271,0.836c-0.491,0.187-1.024,0.281-1.601,0.281c-0.575,0-1.108-0.095-1.599-0.281
		c-0.491-0.188-0.912-0.467-1.264-0.836c-0.353-0.369-0.627-0.826-0.823-1.374c-0.198-0.545-0.297-1.183-0.297-1.911
		c0-0.739,0.099-1.381,0.297-1.927c0.196-0.546,0.471-1.001,0.823-1.366c0.352-0.363,0.772-0.636,1.264-0.818
		c0.49-0.183,1.023-0.273,1.599-0.273c0.576,0,1.109,0.091,1.601,0.273c0.49,0.183,0.915,0.455,1.271,0.818
		c0.358,0.365,0.635,0.82,0.832,1.366S71.531,7.004,71.531,7.743z M68.668,7.743c0-0.712-0.096-1.228-0.286-1.546
		C68.191,5.878,67.91,5.72,67.54,5.72c-0.371,0-0.652,0.158-0.841,0.478c-0.192,0.318-0.287,0.834-0.287,1.546
		c0,1.36,0.377,2.04,1.128,2.04C68.292,9.783,68.668,9.104,68.668,7.743z"/>
	<path fill="#FFFFFF" d="M79.001,3.438v8.53h-3.104v-8.53h-3.133V0.725h9.373v2.714H79.001z"/>
	<path fill="#FFFFFF" d="M89.126,8.016c0,0.119,0,0.224,0,0.315c0,0.09-0.006,0.172-0.016,0.249h-4.928
		c0.055,0.471,0.207,0.813,0.456,1.027c0.25,0.214,0.573,0.321,0.968,0.321c0.373,0,0.726-0.046,1.055-0.137
		c0.331-0.092,0.705-0.244,1.121-0.458l1.104,1.847c-0.521,0.311-1.059,0.55-1.607,0.716c-0.55,0.166-1.154,0.249-1.814,0.249
		c-0.631,0-1.19-0.106-1.68-0.321c-0.492-0.215-0.902-0.516-1.231-0.9c-0.331-0.385-0.582-0.849-0.752-1.39
		c-0.171-0.54-0.257-1.131-0.257-1.774c0-0.729,0.096-1.365,0.288-1.911s0.458-1.003,0.801-1.374
		c0.341-0.369,0.746-0.648,1.215-0.836c0.47-0.188,0.98-0.28,1.534-0.28c1.153,0,2.064,0.385,2.737,1.156
		C88.789,5.287,89.126,6.454,89.126,8.016z M86.206,5.816c-0.176-0.215-0.477-0.321-0.902-0.321c-0.651,0-1.024,0.427-1.121,1.284
		h2.398C86.508,6.352,86.383,6.03,86.206,5.816z"/>
	<path fill="#FFFFFF" d="M99.442,10.322c-0.257,0.348-0.567,0.656-0.935,0.923c-0.369,0.269-0.803,0.485-1.306,0.651
		c-0.499,0.166-1.081,0.249-1.741,0.249c-0.832,0-1.565-0.147-2.199-0.441c-0.636-0.295-1.169-0.7-1.601-1.213
		c-0.434-0.515-0.757-1.126-0.975-1.831c-0.221-0.708-0.329-1.479-0.329-2.313c0-0.899,0.126-1.709,0.375-2.426
		c0.251-0.718,0.604-1.325,1.057-1.823c0.454-0.499,0.991-0.882,1.615-1.148c0.623-0.27,1.314-0.401,2.071-0.401
		c0.683,0,1.271,0.071,1.767,0.217c0.497,0.144,0.923,0.358,1.281,0.642c0.357,0.284,0.658,0.633,0.902,1.045
		c0.246,0.411,0.466,0.88,0.656,1.405l-2.815,1.107c-0.097-0.257-0.196-0.491-0.303-0.706c-0.107-0.215-0.23-0.395-0.367-0.538
		c-0.141-0.145-0.299-0.258-0.479-0.337c-0.184-0.082-0.401-0.121-0.656-0.121c-0.321,0-0.599,0.078-0.832,0.233
		c-0.235,0.155-0.431,0.368-0.584,0.643c-0.155,0.272-0.268,0.597-0.336,0.971c-0.069,0.376-0.104,0.788-0.104,1.238
		c0,0.428,0.035,0.83,0.104,1.204c0.068,0.375,0.181,0.702,0.336,0.98c0.153,0.278,0.349,0.498,0.584,0.658
		c0.233,0.16,0.521,0.24,0.863,0.24c0.246,0,0.459-0.032,0.639-0.096c0.181-0.064,0.348-0.163,0.496-0.297
		c0.15-0.135,0.294-0.3,0.433-0.5c0.139-0.196,0.283-0.429,0.432-0.697l2.623,1.397C99.924,9.612,99.699,9.974,99.442,10.322z"/>
	<path fill="#FFFFFF" d="M106.146,11.969v-0.562c-0.257,0.202-0.547,0.377-0.873,0.521c-0.325,0.145-0.732,0.217-1.224,0.217
		c-0.928,0-1.612-0.297-2.056-0.893c-0.441-0.594-0.664-1.448-0.664-2.562V3.536h2.896v4.787c0,0.545,0.084,0.912,0.255,1.1
		c0.172,0.188,0.405,0.281,0.705,0.281c0.297,0,0.532-0.092,0.703-0.274c0.17-0.183,0.257-0.539,0.257-1.074V3.536h2.895v8.433
		H106.146z"/>
	<path fill="#FFFFFF" d="M114.031,1.494c0,0.449-0.155,0.802-0.465,1.053c-0.309,0.251-0.714,0.377-1.215,0.377
		c-0.479,0-0.875-0.126-1.185-0.377c-0.309-0.251-0.464-0.604-0.464-1.053c0-0.407,0.155-0.74,0.464-1.004
		c0.31-0.262,0.705-0.394,1.185-0.394c0.501,0,0.906,0.132,1.215,0.394C113.876,0.754,114.031,1.087,114.031,1.494z M110.91,11.969
		V3.536h2.864v8.433H110.91z"/>
	<path fill="#FFFFFF" d="M120.125,11.974v-0.595c-0.277,0.223-0.566,0.407-0.864,0.551s-0.673,0.216-1.12,0.216
		c-0.395,0-0.76-0.08-1.095-0.241c-0.336-0.16-0.63-0.417-0.88-0.77c-0.251-0.355-0.449-0.807-0.592-1.359
		c-0.145-0.55-0.217-1.218-0.217-2c0-1.521,0.254-2.637,0.76-3.349s1.219-1.068,2.137-1.068c0.427,0,0.786,0.077,1.079,0.231
		c0.292,0.153,0.557,0.321,0.792,0.503v-2.68l2.895-1.155v11.716H120.125z M120.125,6.125c-0.15-0.118-0.301-0.217-0.456-0.292
		c-0.154-0.076-0.344-0.113-0.568-0.113c-0.149,0-0.279,0.026-0.392,0.081c-0.11,0.054-0.207,0.153-0.289,0.298
		c-0.078,0.147-0.138,0.347-0.175,0.601c-0.038,0.254-0.056,0.581-0.056,0.979c0,0.423,0.018,0.771,0.056,1.046
		c0.037,0.275,0.097,0.491,0.175,0.648c0.082,0.156,0.179,0.264,0.297,0.322c0.118,0.061,0.251,0.089,0.401,0.089
		c0.212,0,0.396-0.036,0.551-0.112c0.155-0.076,0.306-0.173,0.456-0.292V6.125z"/>
	<path fill="#FFFFFF" d="M129.289,11.969v-0.562c-0.276,0.214-0.59,0.39-0.943,0.529c-0.352,0.139-0.719,0.209-1.104,0.209
		c-0.82,0-1.479-0.247-1.976-0.738c-0.495-0.493-0.743-1.217-0.743-2.17c0-0.449,0.075-0.845,0.224-1.188
		c0.15-0.343,0.358-0.629,0.624-0.86c0.267-0.23,0.583-0.404,0.952-0.522c0.367-0.117,0.775-0.176,1.224-0.176
		c0.383,0,0.712,0.032,0.984,0.096c0.271,0.064,0.524,0.151,0.758,0.257V6.427c0-0.376-0.097-0.635-0.295-0.779
		s-0.493-0.217-0.888-0.217c-0.438,0-0.835,0.046-1.191,0.137c-0.357,0.09-0.738,0.249-1.144,0.474L125.02,4.13
		c0.512-0.247,1.06-0.438,1.639-0.571c0.582-0.133,1.239-0.2,1.977-0.2c1.174,0,2.028,0.277,2.566,0.835
		c0.539,0.558,0.808,1.323,0.808,2.298v5.478H129.289z M129.289,8.531c-0.16-0.075-0.335-0.134-0.527-0.176
		c-0.191-0.045-0.427-0.066-0.703-0.066c-0.598,0-0.896,0.301-0.896,0.9c0,0.269,0.071,0.487,0.215,0.658
		c0.146,0.172,0.371,0.258,0.681,0.258c0.244,0,0.477-0.041,0.695-0.12c0.219-0.081,0.398-0.181,0.535-0.299V8.531z"/>
	<path fill="#FFFFFF" d="M140.503,9.302c0,0.975-0.31,1.692-0.928,2.153c-0.619,0.46-1.466,0.69-2.545,0.69
		c-0.617,0-1.22-0.062-1.806-0.185c-0.587-0.123-1.152-0.292-1.695-0.506l0.672-2.186c0.511,0.225,1.028,0.405,1.55,0.538
		c0.523,0.134,0.971,0.201,1.344,0.201c0.278,0,0.476-0.032,0.593-0.097s0.175-0.161,0.175-0.29c0-0.138-0.042-0.242-0.127-0.312
		c-0.085-0.068-0.266-0.141-0.544-0.217c-0.65-0.17-1.196-0.34-1.639-0.505c-0.443-0.167-0.801-0.359-1.071-0.58
		c-0.272-0.219-0.469-0.479-0.592-0.779c-0.124-0.298-0.186-0.668-0.186-1.106c0-0.867,0.282-1.545,0.848-2.032
		c0.565-0.488,1.424-0.731,2.575-0.731c0.319,0,0.613,0.013,0.881,0.039c0.266,0.028,0.528,0.064,0.783,0.113
		c0.257,0.048,0.512,0.112,0.767,0.192c0.257,0.081,0.523,0.17,0.802,0.266l-0.642,2.232c-0.554-0.247-1.044-0.425-1.47-0.537
		c-0.428-0.112-0.826-0.169-1.199-0.169c-0.277,0-0.466,0.03-0.56,0.088c-0.097,0.059-0.145,0.153-0.145,0.281
		c0,0.064,0.008,0.12,0.022,0.168c0.018,0.049,0.054,0.095,0.111,0.137c0.061,0.044,0.146,0.086,0.257,0.13
		c0.112,0.043,0.259,0.091,0.441,0.144c0.584,0.161,1.089,0.321,1.511,0.481c0.421,0.162,0.768,0.35,1.038,0.562
		c0.272,0.215,0.472,0.466,0.593,0.756C140.441,8.531,140.503,8.885,140.503,9.302z"/>
	<path fill="#FFFFFF" d="M36.981,27.292c0,0.12,0,0.224,0,0.315c0,0.09-0.007,0.174-0.016,0.249h-4.927
		c0.052,0.471,0.205,0.813,0.455,1.027c0.251,0.214,0.572,0.322,0.969,0.322c0.373,0,0.724-0.047,1.055-0.138
		c0.33-0.092,0.704-0.244,1.119-0.457l1.104,1.846c-0.522,0.312-1.059,0.55-1.607,0.716c-0.55,0.167-1.153,0.249-1.815,0.249
		c-0.63,0-1.189-0.107-1.68-0.321s-0.901-0.513-1.232-0.9c-0.33-0.385-0.58-0.847-0.752-1.389c-0.17-0.54-0.254-1.132-0.254-1.775
		c0-0.729,0.096-1.365,0.286-1.911c0.192-0.546,0.459-1.005,0.801-1.374s0.745-0.647,1.216-0.834
		c0.469-0.188,0.979-0.282,1.535-0.282c1.152,0,2.063,0.386,2.735,1.156C36.646,24.563,36.981,25.73,36.981,27.292z M34.062,25.093
		c-0.176-0.215-0.477-0.321-0.903-0.321c-0.649,0-1.022,0.43-1.119,1.285h2.399C34.363,25.628,34.238,25.307,34.062,25.093z"/>
	<path fill="#FFFFFF" d="M43.252,31.245v-4.787c0-0.546-0.087-0.912-0.259-1.1s-0.409-0.282-0.709-0.282
		c-0.313,0-0.555,0.093-0.728,0.273c-0.171,0.182-0.257,0.541-0.257,1.076v4.819h-2.863v-8.434H41.3l0.017,0.562
		c0.266-0.203,0.56-0.377,0.879-0.521c0.32-0.145,0.73-0.218,1.232-0.218c0.927,0,1.612,0.298,2.056,0.892
		c0.442,0.594,0.662,1.448,0.662,2.562v5.156H43.252z"/>
	<path fill="#FFFFFF" d="M49.505,31.245v-7.743h-1.887v-1.976c0.362-0.021,0.671-0.063,0.928-0.128
		c0.256-0.064,0.474-0.155,0.656-0.272c0.181-0.118,0.33-0.271,0.447-0.46c0.118-0.187,0.218-0.408,0.304-0.665h2.591v11.244H49.505
		z"/>
	<path fill="#FFFFFF" d="M64.51,25.606c0,0.932-0.129,1.76-0.384,2.482c-0.257,0.723-0.611,1.331-1.064,1.822
		c-0.453,0.494-0.991,0.869-1.614,1.126c-0.625,0.256-1.3,0.385-2.024,0.385c-0.726,0-1.397-0.127-2.015-0.377
		c-0.62-0.252-1.153-0.622-1.601-1.109c-0.447-0.486-0.8-1.092-1.057-1.814c-0.255-0.723-0.383-1.551-0.383-2.482
		s0.128-1.76,0.383-2.481c0.257-0.723,0.611-1.332,1.064-1.823c0.453-0.493,0.992-0.868,1.614-1.125
		c0.625-0.257,1.3-0.386,2.025-0.386c0.725,0,1.396,0.127,2.014,0.378c0.62,0.252,1.153,0.622,1.601,1.109
		c0.448,0.486,0.8,1.092,1.057,1.814C64.381,23.847,64.51,24.676,64.51,25.606z M61.327,25.639c0-1.038-0.167-1.82-0.497-2.345
		c-0.33-0.525-0.799-0.787-1.407-0.787c-0.607,0-1.072,0.256-1.393,0.771c-0.319,0.514-0.479,1.291-0.479,2.329
		c0,1.039,0.166,1.821,0.496,2.346c0.33,0.525,0.801,0.787,1.408,0.787c0.606,0,1.071-0.257,1.392-0.771
		C61.166,27.455,61.327,26.678,61.327,25.639z"/>
	<path fill="#FFFFFF" d="M75.483,23.727c0,0.718-0.113,1.324-0.338,1.816s-0.541,0.892-0.946,1.196
		c-0.406,0.305-0.89,0.525-1.451,0.659S71.57,27.6,70.896,27.6h-1.556v3.646h-3.04V20.001h4.814c0.649,0,1.245,0.065,1.784,0.2
		c0.538,0.135,0.999,0.348,1.384,0.642c0.384,0.296,0.681,0.681,0.887,1.157C75.379,22.478,75.483,23.053,75.483,23.727z
		 M72.395,23.775c0-0.375-0.101-0.674-0.305-0.9c-0.204-0.225-0.558-0.337-1.062-0.337h-1.687v2.522h1.64
		c0.514,0,0.879-0.106,1.094-0.321C72.288,24.525,72.395,24.204,72.395,23.775z"/>
	<path fill="#FFFFFF" d="M80.81,31.245v-0.562c-0.277,0.214-0.592,0.391-0.944,0.529s-0.72,0.209-1.105,0.209
		c-0.819,0-1.478-0.247-1.974-0.738c-0.497-0.493-0.743-1.215-0.743-2.169c0-0.45,0.074-0.846,0.223-1.19
		c0.15-0.342,0.358-0.627,0.624-0.858c0.266-0.23,0.585-0.404,0.952-0.521c0.367-0.118,0.776-0.177,1.223-0.177
		c0.385,0,0.714,0.032,0.985,0.096c0.272,0.064,0.525,0.149,0.76,0.258v-0.418c0-0.374-0.101-0.635-0.297-0.779
		c-0.197-0.145-0.493-0.217-0.889-0.217c-0.436,0-0.834,0.046-1.19,0.137c-0.356,0.09-0.738,0.249-1.144,0.474l-0.752-1.911
		c0.513-0.246,1.059-0.436,1.641-0.57c0.579-0.134,1.238-0.201,1.976-0.201c1.172,0,2.027,0.277,2.566,0.835
		c0.538,0.558,0.807,1.324,0.807,2.298v5.478H80.81z M80.81,27.808c-0.16-0.075-0.337-0.134-0.529-0.176
		c-0.19-0.044-0.425-0.064-0.703-0.064c-0.597,0-0.896,0.299-0.896,0.899c0,0.268,0.07,0.486,0.215,0.658
		c0.145,0.171,0.371,0.257,0.681,0.257c0.246,0,0.478-0.04,0.695-0.12c0.219-0.081,0.398-0.181,0.537-0.298V27.808z"/>
	<path fill="#FFFFFF" d="M85.336,31.245V20.69l2.861-1.156v11.711H85.336z"/>
	<path fill="#FFFFFF" d="M94.565,31.245v-0.562c-0.277,0.214-0.592,0.391-0.945,0.529c-0.351,0.139-0.719,0.209-1.103,0.209
		c-0.822,0-1.48-0.247-1.976-0.738c-0.496-0.493-0.745-1.215-0.745-2.169c0-0.45,0.075-0.846,0.225-1.19
		c0.149-0.342,0.358-0.627,0.625-0.858c0.266-0.23,0.584-0.404,0.95-0.521c0.369-0.118,0.776-0.177,1.225-0.177
		c0.384,0,0.711,0.032,0.983,0.096c0.272,0.064,0.524,0.149,0.761,0.258v-0.418c0-0.374-0.1-0.635-0.296-0.779
		c-0.198-0.145-0.494-0.217-0.888-0.217c-0.439,0-0.834,0.046-1.193,0.137c-0.356,0.09-0.738,0.249-1.143,0.474l-0.751-1.911
		c0.51-0.246,1.058-0.436,1.639-0.57c0.582-0.134,1.239-0.201,1.976-0.201c1.173,0,2.028,0.277,2.567,0.835s0.808,1.324,0.808,2.298
		v5.478H94.565z M94.565,27.808c-0.161-0.075-0.337-0.134-0.528-0.176c-0.192-0.044-0.429-0.064-0.703-0.064
		c-0.598,0-0.896,0.299-0.896,0.899c0,0.268,0.072,0.486,0.215,0.658c0.145,0.171,0.37,0.257,0.682,0.257
		c0.244,0,0.475-0.04,0.695-0.12c0.219-0.081,0.396-0.181,0.536-0.298V27.808z"/>
	<path fill="#FFFFFF" d="M106.674,27.004c0,1.511-0.257,2.625-0.771,3.341c-0.516,0.718-1.233,1.077-2.155,1.077
		c-0.416,0-0.775-0.076-1.072-0.23c-0.3-0.154-0.565-0.322-0.801-0.504v0.562h-2.863V20.692l2.863-1.158l0.017,3.866
		c0.285-0.223,0.574-0.407,0.864-0.55c0.291-0.144,0.659-0.216,1.104-0.216c0.397,0,0.766,0.08,1.109,0.24
		c0.344,0.162,0.642,0.419,0.892,0.771c0.253,0.355,0.451,0.807,0.596,1.357C106.602,25.556,106.674,26.224,106.674,27.004z
		 M103.811,27.102c0-0.421-0.019-0.77-0.057-1.045c-0.038-0.274-0.094-0.491-0.167-0.647c-0.075-0.156-0.172-0.265-0.288-0.323
		c-0.118-0.06-0.251-0.09-0.401-0.09c-0.212,0-0.4,0.038-0.56,0.113c-0.16,0.075-0.314,0.174-0.464,0.292v3.255
		c0.149,0.118,0.304,0.216,0.464,0.291c0.159,0.076,0.352,0.114,0.576,0.114c0.15,0,0.28-0.028,0.392-0.081
		c0.112-0.054,0.206-0.154,0.281-0.3c0.073-0.146,0.129-0.346,0.167-0.6C103.792,27.828,103.811,27.501,103.811,27.102z"/>
	<path fill="#FFFFFF" d="M113.503,25.993c-0.181-0.205-0.382-0.373-0.6-0.507c-0.219-0.133-0.466-0.201-0.742-0.201
		c-0.354,0-0.632,0.101-0.833,0.298c-0.202,0.197-0.305,0.555-0.305,1.067v4.595h-2.863v-8.434h2.863v0.61
		c0.245-0.246,0.513-0.439,0.801-0.578c0.286-0.14,0.618-0.209,0.991-0.209c0.31,0,0.571,0.032,0.783,0.097
		c0.213,0.063,0.405,0.149,0.577,0.257L113.503,25.993z"/>
	<path fill="#FFFFFF" d="M119.422,31.245v-0.562c-0.278,0.214-0.593,0.391-0.945,0.529c-0.352,0.139-0.719,0.209-1.104,0.209
		c-0.82,0-1.479-0.247-1.976-0.738c-0.495-0.493-0.742-1.215-0.742-2.169c0-0.45,0.073-0.846,0.223-1.19
		c0.15-0.342,0.357-0.627,0.624-0.858c0.267-0.23,0.584-0.404,0.952-0.521c0.367-0.118,0.776-0.177,1.224-0.177
		c0.383,0,0.712,0.032,0.984,0.096c0.271,0.064,0.525,0.149,0.76,0.258v-0.418c0-0.374-0.1-0.635-0.297-0.779
		s-0.492-0.217-0.888-0.217c-0.437,0-0.834,0.046-1.191,0.137c-0.356,0.09-0.737,0.249-1.143,0.474l-0.752-1.911
		c0.511-0.246,1.059-0.436,1.639-0.57c0.581-0.134,1.239-0.201,1.975-0.201c1.175,0,2.028,0.277,2.567,0.835
		s0.808,1.324,0.808,2.298v5.478H119.422z M119.422,27.808c-0.161-0.075-0.336-0.134-0.528-0.176
		c-0.192-0.044-0.427-0.064-0.704-0.064c-0.597,0-0.895,0.299-0.895,0.899c0,0.268,0.07,0.486,0.215,0.658
		c0.145,0.171,0.371,0.257,0.68,0.257c0.245,0,0.479-0.04,0.695-0.12c0.219-0.081,0.399-0.181,0.537-0.298V27.808z"/>
	<path fill="#FFFFFF" d="M130.635,28.579c0,0.974-0.311,1.691-0.928,2.152c-0.619,0.46-1.467,0.69-2.544,0.69
		c-0.619,0-1.221-0.062-1.809-0.185c-0.585-0.122-1.151-0.292-1.694-0.506l0.672-2.185c0.512,0.225,1.028,0.404,1.55,0.537
		c0.523,0.134,0.971,0.202,1.345,0.202c0.278,0,0.475-0.032,0.593-0.097c0.116-0.064,0.175-0.16,0.175-0.29
		c0-0.139-0.042-0.243-0.127-0.313c-0.086-0.068-0.267-0.141-0.544-0.217c-0.651-0.17-1.198-0.339-1.64-0.505
		c-0.443-0.167-0.799-0.359-1.072-0.578c-0.271-0.221-0.469-0.479-0.59-0.78c-0.124-0.299-0.187-0.669-0.187-1.108
		c0-0.866,0.282-1.544,0.849-2.031c0.564-0.487,1.423-0.731,2.575-0.731c0.32,0,0.612,0.013,0.882,0.041
		c0.265,0.026,0.526,0.064,0.782,0.112s0.511,0.112,0.767,0.192c0.257,0.08,0.522,0.169,0.801,0.265l-0.641,2.233
		c-0.554-0.246-1.043-0.426-1.471-0.538c-0.427-0.112-0.826-0.169-1.2-0.169c-0.276,0-0.464,0.029-0.559,0.088
		c-0.097,0.059-0.145,0.153-0.145,0.281c0,0.064,0.008,0.121,0.022,0.17c0.018,0.048,0.055,0.093,0.112,0.136
		c0.06,0.043,0.145,0.085,0.257,0.129c0.112,0.043,0.259,0.091,0.439,0.144c0.586,0.161,1.091,0.322,1.512,0.482
		c0.421,0.161,0.767,0.349,1.04,0.562c0.271,0.215,0.47,0.466,0.592,0.757C130.573,27.808,130.635,28.161,130.635,28.579z"/>
</g>
<g>
	<path fill="#FFFFFF" d="M1.18,31.355l2.688-8.549H0l0.707-4.298h4.527l1.746-5.493H2.97l0.708-4.298h4.623l2.642-8.406h4.104
		l-2.643,8.406h4.151l2.643-8.406h4.15l-2.642,8.406h3.82l-0.708,4.298h-4.434l-1.696,5.493h3.914l-0.708,4.298h-4.622l-2.642,8.549
		H9.434l2.688-8.549H8.018l-2.641,8.549H1.18z M13.489,18.509l1.745-5.493h-4.104l-1.697,5.493H13.489z"/>
</g>
</svg>
