<?xml version="1.0" encoding="utf-8"?>
<!-- Generator: Adobe Illustrator 16.0.0, SVG Export Plug-In . SVG Version: 6.00 Build 0)  -->
<!DOCTYPE svg PUBLIC "-//W3C//DTD SVG 1.1//EN" "http://www.w3.org/Graphics/SVG/1.1/DTD/svg11.dtd">
<svg version="1.1" id="Capa_1" xmlns="http://www.w3.org/2000/svg" xmlns:xlink="http://www.w3.org/1999/xlink" x="0px" y="0px"
	 width="70px" height="47px" viewBox="0 0 70 47" enable-background="new 0 0 70 47" xml:space="preserve">
<g>
	<path fill="#FFFFFF" d="M34.628,24.338c0,1.771-1.398,3.172-3.17,3.172c-1.771,0-3.17-1.4-3.17-3.172
		c0-1.771,1.399-3.169,3.17-3.169h0.094l-3.264-5.223h-2.146c-0.186,1.586-1.584,2.799-3.17,2.799c-1.771,0-3.17-1.399-3.17-3.171
		c0-1.771,1.398-3.17,3.17-3.17c1.492,0,2.705,0.932,3.077,2.237h2.985l4.755,7.647C34.349,22.753,34.628,23.499,34.628,24.338
		 M34.628,6.527c0,1.772-1.398,3.171-3.17,3.171h-0.094l2.705,4.01H32.39l-3.917-5.782l0,0c-0.186-0.466-0.373-0.932-0.373-1.492
		c0-1.771,1.398-3.17,3.17-3.17C33.229,3.357,34.628,4.756,34.628,6.527 M46.844,22.193v-6.714l0,0c0-3.73-2.984-6.714-6.714-6.714
		c-0.839,0-1.679,0.186-2.424,0.466c0.278-0.746,0.467-1.679,0.467-2.518c0-3.73-2.985-6.714-6.715-6.714s-6.714,2.984-6.714,6.714
		c0,0.839,0.187,1.679,0.467,2.424c-0.653-0.187-1.398-0.373-2.145-0.373c-3.73,0-6.714,2.984-6.714,6.714s2.984,6.714,6.714,6.714
		c0.747,0,1.492-0.093,2.145-0.373c-0.28,0.746-0.467,1.584-0.467,2.423c0,3.73,2.984,6.715,6.714,6.715s6.715-2.984,6.715-6.715
		c0-0.931-0.188-1.771-0.467-2.517c0.745,0.28,1.585,0.466,2.424,0.466c0.652,0,1.213-0.093,1.771-0.279V18.09
		c-0.467,0.373-1.119,0.56-1.771,0.56c-1.772,0-3.17-1.399-3.17-3.171c0-1.771,1.397-3.17,3.17-3.17c1.771,0,3.171,1.399,3.171,3.17
		l0,0l0,0v6.714H46.844z"/>
	<path fill="#FFFFFF" d="M67.826,44.387c0,0.746-0.562,1.213-1.119,1.213c-0.654,0-1.119-0.559-1.119-1.213
		c0-0.744,0.559-1.213,1.119-1.213C67.265,43.174,67.826,43.643,67.826,44.387 M68.198,44.387c0-0.838-0.653-1.49-1.491-1.49
		c-0.84,0-1.492,0.652-1.492,1.49c0,0.84,0.652,1.494,1.492,1.494C67.452,45.881,68.198,45.227,68.198,44.387"/>
	<path fill="#FFFFFF" d="M66.613,44.201h-0.279v-0.465h0.279c0.187,0,0.373,0,0.373,0.277C66.986,44.201,66.8,44.201,66.613,44.201
		 M66.893,44.48c0.279,0,0.466-0.188,0.466-0.467c0-0.371-0.187-0.465-0.651-0.465h-0.654v1.771h0.281v-0.746h0.186l0.467,0.746
		h0.372L66.893,44.48z"/>
</g>
<path fill="#FFFFFF" d="M7.492,41.963H4.975l1.305-3.822l0,0L7.492,41.963z M11.688,45.881l-3.73-9.793H4.694l-3.729,9.793h2.611
	l0.746-2.053h3.636l0.746,2.053H11.688z"/>
<rect x="12.341" y="35.342" fill="#FFFFFF" width="2.518" height="10.539"/>
<g>
	<path fill="#FFFFFF" d="M21.293,41.496h-2.798c0.094-0.838,0.467-1.49,1.4-1.49C20.92,40.006,21.293,40.658,21.293,41.496
		 M23.531,42.988v-0.465c0-2.146-1.025-4.104-3.729-4.104c-2.238,0-3.917,1.398-3.917,3.824c0,2.424,1.865,3.822,4.29,3.822
		c0.932,0,1.865-0.186,2.705-0.467v-1.771c-0.747,0.373-1.585,0.559-2.238,0.559c-1.212,0-1.958-0.373-2.146-1.398H23.531z"/>
	<path fill="#FFFFFF" d="M24.464,45.881h2.518v-3.078c0-1.586,0.56-2.332,1.398-2.332c0.747,0,1.026,0.652,1.026,1.398v3.918h2.518
		v-3.078c0-1.586,0.559-2.332,1.398-2.332c0.746,0,1.026,0.652,1.026,1.398v3.918h2.518v-4.289c0-1.959-0.467-3.172-2.611-3.172
		c-1.025,0-1.958,0.465-2.611,1.398c-0.374-0.934-1.212-1.398-2.238-1.398c-1.119,0-2.146,0.465-2.705,1.492l0,0V38.42H24.37v7.461
		H24.464z"/>
	<path fill="#FFFFFF" d="M42.647,42.615c0,0.84-0.559,1.678-1.585,1.678c-0.56,0-1.026-0.279-1.026-0.838
		c0-0.746,0.653-0.932,1.491-0.932C41.901,42.615,42.274,42.615,42.647,42.615 M45.164,45.881c-0.092-0.561-0.185-1.121-0.185-1.68
		v-2.705c0-2.236-1.585-2.982-3.452-2.982c-1.118,0-2.05,0.184-2.89,0.559v1.678c0.747-0.373,1.492-0.559,2.332-0.559
		c0.932,0,1.678,0.279,1.678,1.305c-0.28-0.092-0.746-0.092-1.213-0.092c-1.305,0-3.729,0.279-3.729,2.516
		c0,1.586,1.305,2.332,2.703,2.332c1.025,0,1.773-0.371,2.331-1.305l0,0c0,0.373,0,0.746,0.094,1.119h2.33V45.881z"/>
	<path fill="#FFFFFF" d="M46.191,45.881h2.518v-3.078c0-1.586,0.56-2.332,1.586-2.332c0.652,0,1.119,0.467,1.119,1.863v3.547h2.518
		v-4.57c0-1.492-0.84-2.891-2.799-2.891c-1.119,0-2.145,0.467-2.704,1.49l0,0v-1.305h-2.331v7.275H46.191z"/>
	<path fill="#FFFFFF" d="M59.713,42.615c0,0.84-0.561,1.678-1.586,1.678c-0.559,0-1.026-0.279-1.026-0.838
		c0-0.746,0.653-0.932,1.493-0.932C59.061,42.615,59.434,42.615,59.713,42.615 M62.23,45.881c-0.094-0.561-0.188-1.121-0.188-1.68
		v-2.705c0-2.236-1.585-2.982-3.449-2.982c-1.118,0-2.052,0.184-2.892,0.559v1.678c0.746-0.373,1.491-0.559,2.331-0.559
		c0.934,0,1.68,0.279,1.68,1.305c-0.279-0.092-0.746-0.092-1.213-0.092c-1.307,0-3.731,0.279-3.731,2.516
		c0,1.586,1.308,2.332,2.707,2.332c1.024,0,1.77-0.371,2.331-1.305l0,0c0,0.373,0,0.746,0.092,1.119h2.332V45.881z"/>
</g>
<path fill="#FFFFFF" d="M60.272,36.646h-0.839l0.465-0.838l0,0L60.272,36.646z M61.67,37.486l-1.305-2.051h-1.026l-1.212,2.051
	h0.934l0.278-0.465h1.212l0.28,0.465H61.67z"/>
<g>
	<path fill="#FFFFFF" d="M55.516,37.021c-0.279,0.092-0.559,0.092-0.839,0.092c-0.653,0-1.119-0.279-1.119-0.65
		c0-0.375,0.374-0.654,1.026-0.654c0.278,0,0.56,0.092,0.84,0.186l0.092-0.465c-0.279-0.094-0.653-0.094-0.932-0.094
		c-1.12,0-1.865,0.373-1.865,1.119c0,0.838,1.026,1.119,1.865,1.119c0.467,0,0.746,0,0.932-0.094V37.021z"/>
</g>
<rect x="48.15" y="35.436" fill="#FFFFFF" width="0.838" height="2.051"/>
<polygon fill="#FFFFFF" points="41.155,37.486 41.994,37.486 41.994,36.088 41.994,36.088 43.112,37.486 44.232,37.486 
	44.232,35.436 43.395,35.436 43.395,36.834 43.395,36.834 42.274,35.436 41.155,35.436 "/>
<rect x="36.586" y="35.436" fill="#FFFFFF" width="0.839" height="2.051"/>
<polygon fill="#FFFFFF" points="30.898,37.486 33.136,37.486 33.136,37.113 31.737,37.113 31.737,35.436 30.898,35.436 "/>
<g>
	<path fill="#FFFFFF" d="M27.261,37.021c-0.279,0.092-0.559,0.092-0.838,0.092c-0.653,0-1.119-0.279-1.119-0.65
		c0-0.375,0.373-0.654,1.025-0.654c0.28,0,0.56,0.092,0.839,0.186l0.093-0.465c-0.279-0.094-0.652-0.094-0.932-0.094
		c-1.119,0-1.865,0.373-1.865,1.119c0,0.838,1.025,1.119,1.865,1.119c0.467,0,0.746,0,0.932-0.094V37.021z"/>
</g>
</svg>
