<?xml version="1.0" encoding="utf-8"?>
<!-- Generator: Adobe Illustrator 19.2.1, SVG Export Plug-In . SVG Version: 6.00 Build 0)  -->
<svg version="1.1" id="Capa_1" xmlns="http://www.w3.org/2000/svg" xmlns:xlink="http://www.w3.org/1999/xlink" x="0px" y="0px"
	 viewBox="0 0 75 50" style="enable-background:new 0 0 75 50;" xml:space="preserve">
<style type="text/css">
	.st0{fill:#FFFFFF;}
</style>
<g>
	<path class="st0" d="M36,26.3c0,1.9-1.5,3.4-3.4,3.4c-1.9,0-3.4-1.5-3.4-3.4c0-1.9,1.5-3.4,3.4-3.4c0,0,0.1,0,0.1,0l-3.5-5.6h-2.3
		c-0.2,1.7-1.7,3-3.4,3c-1.9,0-3.4-1.5-3.4-3.4c0-1.9,1.5-3.4,3.4-3.4c1.6,0,2.9,1,3.3,2.4h3.2l5.1,8.2C35.7,24.6,36,25.4,36,26.3
		 M36,7.2c0,1.9-1.5,3.4-3.4,3.4l-0.1,0l2.9,4.3l-1.8,0l-4.2-6.2l0,0c-0.2-0.5-0.4-1-0.4-1.6c0-1.9,1.5-3.4,3.4-3.4
		C34.5,3.8,36,5.3,36,7.2 M49.1,24l0-7.2v0c0-4-3.2-7.2-7.2-7.2c-0.9,0-1.8,0.2-2.6,0.5c0.3-0.8,0.5-1.8,0.5-2.7
		c0-4-3.2-7.2-7.2-7.2c-4,0-7.2,3.2-7.2,7.2c0,0.9,0.2,1.8,0.5,2.6c-0.7-0.2-1.5-0.4-2.3-0.4c-4,0-7.2,3.2-7.2,7.2s3.2,7.2,7.2,7.2
		c0.8,0,1.6-0.1,2.3-0.4c-0.3,0.8-0.5,1.7-0.5,2.6c0,4,3.2,7.2,7.2,7.2c4,0,7.2-3.2,7.2-7.2c0-1-0.2-1.9-0.5-2.7
		c0.8,0.3,1.7,0.5,2.6,0.5c0.7,0,1.3-0.1,1.9-0.3v-4.1c-0.5,0.4-1.2,0.6-1.9,0.6c-1.9,0-3.4-1.5-3.4-3.4c0-1.9,1.5-3.4,3.4-3.4
		c1.9,0,3.4,1.5,3.4,3.4v0h0V24H49.1z"/>
	<path class="st0" d="M71.6,47.8c0,0.8-0.6,1.3-1.2,1.3c-0.7,0-1.2-0.6-1.2-1.3c0-0.8,0.6-1.3,1.2-1.3C71,46.5,71.6,47,71.6,47.8
		 M72,47.8c0-0.9-0.7-1.6-1.6-1.6c-0.9,0-1.6,0.7-1.6,1.6c0,0.9,0.7,1.6,1.6,1.6C71.2,49.4,72,48.7,72,47.8"/>
	<path class="st0" d="M70.3,47.6H70v-0.5h0.3c0.2,0,0.4,0,0.4,0.3C70.7,47.6,70.5,47.6,70.3,47.6 M70.6,47.9c0.3,0,0.5-0.2,0.5-0.5
		c0-0.4-0.2-0.5-0.7-0.5h-0.7v1.9H70v-0.8h0.2l0.5,0.8h0.4L70.6,47.9z"/>
</g>
<path class="st0" d="M6.9,45.2H4.2l1.4-4.1h0L6.9,45.2z M11.4,49.4l-4-10.5H3.9l-4,10.5h2.8l0.8-2.2h3.9l0.8,2.2H11.4z"/>
<rect x="12.1" y="38.1" class="st0" width="2.7" height="11.3"/>
<g>
	<path class="st0" d="M21.7,44.7h-3c0.1-0.9,0.5-1.6,1.5-1.6C21.3,43.1,21.7,43.8,21.7,44.7 M24.1,46.3v-0.5c0-2.3-1.1-4.4-4-4.4
		c-2.4,0-4.2,1.5-4.2,4.1c0,2.6,2,4.1,4.6,4.1c1,0,2-0.2,2.9-0.5v-1.9c-0.8,0.4-1.7,0.6-2.4,0.6c-1.3,0-2.1-0.4-2.3-1.5H24.1z"/>
	<path class="st0" d="M25.1,49.4h2.7v-3.3c0-1.7,0.6-2.5,1.5-2.5c0.8,0,1.1,0.7,1.1,1.5v4.2h2.7v-3.3c0-1.7,0.6-2.5,1.5-2.5
		c0.8,0,1.1,0.7,1.1,1.5v4.2h2.7v-4.6c0-2.1-0.5-3.4-2.8-3.4c-1.1,0-2.1,0.5-2.8,1.5c-0.4-1-1.3-1.5-2.4-1.5c-1.2,0-2.3,0.5-2.9,1.6
		h0v-1.4h-2.5V49.4z"/>
	<path class="st0" d="M44.6,45.9c0,0.9-0.6,1.8-1.7,1.8c-0.6,0-1.1-0.3-1.1-0.9c0-0.8,0.7-1,1.6-1C43.8,45.9,44.2,45.9,44.6,45.9
		 M47.3,49.4c-0.1-0.6-0.2-1.2-0.2-1.8v-2.9c0-2.4-1.7-3.2-3.7-3.2c-1.2,0-2.2,0.2-3.1,0.6l0,1.8c0.8-0.4,1.6-0.6,2.5-0.6
		c1,0,1.8,0.3,1.8,1.4c-0.3-0.1-0.8-0.1-1.3-0.1c-1.4,0-4,0.3-4,2.7c0,1.7,1.4,2.5,2.9,2.5c1.1,0,1.9-0.4,2.5-1.4h0
		c0,0.4,0,0.8,0.1,1.2H47.3z"/>
	<path class="st0" d="M48.4,49.4h2.7v-3.3c0-1.7,0.6-2.5,1.7-2.5c0.7,0,1.2,0.5,1.2,2v3.8h2.7v-4.9c0-1.6-0.9-3.1-3-3.1
		c-1.2,0-2.3,0.5-2.9,1.6h0v-1.4h-2.5V49.4z"/>
	<path class="st0" d="M62.9,45.9c0,0.9-0.6,1.8-1.7,1.8c-0.6,0-1.1-0.3-1.1-0.9c0-0.8,0.7-1,1.6-1C62.2,45.9,62.6,45.9,62.9,45.9
		 M65.6,49.4c-0.1-0.6-0.2-1.2-0.2-1.8v-2.9c0-2.4-1.7-3.2-3.7-3.2c-1.2,0-2.2,0.2-3.1,0.6l0,1.8c0.8-0.4,1.6-0.6,2.5-0.6
		c1,0,1.8,0.3,1.8,1.4c-0.3-0.1-0.8-0.1-1.3-0.1c-1.4,0-4,0.3-4,2.7c0,1.7,1.4,2.5,2.9,2.5c1.1,0,1.9-0.4,2.5-1.4h0
		c0,0.4,0,0.8,0.1,1.2H65.6z"/>
</g>
<path class="st0" d="M63.5,39.5h-0.9l0.5-0.9h0L63.5,39.5z M65,40.4l-1.4-2.2h-1.1l-1.3,2.2h1l0.3-0.5h1.3l0.3,0.5H65z"/>
<g>
	<path class="st0" d="M58.4,39.9C58.1,40,57.8,40,57.5,40c-0.7,0-1.2-0.3-1.2-0.7c0-0.4,0.4-0.7,1.1-0.7c0.3,0,0.6,0.1,0.9,0.2
		l0.1-0.5c-0.3-0.1-0.7-0.1-1-0.1c-1.2,0-2,0.4-2,1.2c0,0.9,1.1,1.2,2,1.2c0.5,0,0.8,0,1-0.1L58.4,39.9z"/>
</g>
<rect x="50.5" y="38.2" class="st0" width="0.9" height="2.2"/>
<polygon class="st0" points="43,40.4 43.9,40.4 43.9,38.9 43.9,38.9 45.1,40.4 46.3,40.4 46.3,38.2 45.4,38.2 45.4,39.7 45.4,39.7 
	44.2,38.2 43,38.2 "/>
<rect x="38.1" y="38.2" class="st0" width="0.9" height="2.2"/>
<polygon class="st0" points="32,40.4 34.4,40.4 34.4,40 32.9,40 32.9,38.2 32,38.2 "/>
<g>
	<path class="st0" d="M28.1,39.9C27.8,40,27.5,40,27.2,40c-0.7,0-1.2-0.3-1.2-0.7c0-0.4,0.4-0.7,1.1-0.7c0.3,0,0.6,0.1,0.9,0.2
		l0.1-0.5c-0.3-0.1-0.7-0.1-1-0.1c-1.2,0-2,0.4-2,1.2c0,0.9,1.1,1.2,2,1.2c0.5,0,0.8,0,1-0.1L28.1,39.9z"/>
</g>
</svg>
